Coordinates
version=1
nRows=13
nColumns=40
inDegrees=yes

Units are S.I. units (second, meters, Newtons, ...)
If the header above contains a line with 'inDegrees', this indicates whether rotational values are in degrees (yes) or radians (no).

endheader
time	pelvis_tilt	pelvis_list	pelvis_rotation	pelvis_tx	pelvis_ty	pelvis_tz	hip_flexion_r	hip_adduction_r	hip_rotation_r	knee_angle_r	knee_angle_r_beta	ankle_angle_r	subtalar_angle_r	mtp_angle_r	hip_flexion_l	hip_adduction_l	hip_rotation_l	knee_angle_l	knee_angle_l_beta	ankle_angle_l	subtalar_angle_l	mtp_angle_l	lumbar_extension	lumbar_bending	lumbar_rotation	arm_flex_r	arm_add_r	arm_rot_r	elbow_flex_r	pro_sup_r	wrist_flex_r	wrist_dev_r	arm_flex_l	arm_add_l	arm_rot_l	elbow_flex_l	pro_sup_l	wrist_flex_l	wrist_dev_l
      4.09500000	    -33.78611934	      1.31849369	     -3.54998856	      0.08964129	      0.67001533	     -1.20548098	     85.04039249	    -14.56626320	     -9.98045611	     67.31942238	      1.17494557	     14.77007150	     -6.51611946	      0.00000000	     85.61909706	    -23.99389507	    -13.56306397	     72.86168867	      1.27167637	     13.86932187	      0.60412421	      0.00000000	     -1.78754654	     -6.53500294	      2.78473367	    -18.76256823	     -2.44471405	    -83.50897853	    126.22285952	     45.00000026	      0.00000000	      0.00000000	    -31.25654644	    -20.71296309	    -86.77730697	    136.30233012	     45.00000026	      0.00000000	      0.00000000
      4.10000000	    -33.79847933	      1.36959792	     -3.71527369	      0.08956703	      0.66900820	     -1.20499232	     85.26408756	    -14.39460249	     -9.85435961	     67.57831456	      1.17946409	     14.85151216	     -6.55203833	      0.00000000	     85.79700748	    -24.21578145	    -13.51646061	     73.13530652	      1.27645190	     13.96452664	      0.61344195	      0.00000000	     -1.83182269	     -6.51127593	      3.20298417	    -19.15989259	     -2.18411298	    -83.72906634	    126.46682201	     45.00000026	      0.00000000	      0.00000000	    -30.63168623	    -20.93173845	    -86.57496707	    136.05730671	     45.00000026	      0.00000000	      0.00000000
      4.10500000	    -33.78620170	      1.40926035	     -3.83799587	      0.08953817	      0.66808419	     -1.20459916	     85.44269588	    -14.27926481	     -9.75941701	     67.83472391	      1.18393928	     14.91304269	     -6.56050056	      0.00000000	     85.93148767	    -24.37821931	    -13.46650819	     73.38329761	      1.28078016	     14.08001755	      0.59174993	      0.00000000	     -1.82125924	     -6.61063956	      3.04829252	    -18.90161596	     -2.24584215	    -83.25047726	    126.42714628	     45.00000026	      0.00000000	      0.00000000	    -31.03648703	    -20.80485934	    -86.79252360	    136.04300702	     45.00000026	      0.00000000	      0.00000000
      4.11000000	    -33.85338918	      1.32294972	     -3.75343691	      0.08947919	      0.66705203	     -1.20470530	     85.64043364	    -14.41424933	     -9.86067271	     68.09484550	      1.18847926	     15.03283558	     -6.52409461	      0.00000000	     86.24308672	    -24.29026660	    -13.22757600	     73.62000930	      1.28491156	     14.08877161	      0.44062096	      0.00000000	     -1.70506101	     -6.52568933	      2.89519653	    -18.58465847	     -2.35464523	    -83.30125317	    126.35546886	     45.00000026	      0.00000000	      0.00000000	    -31.01355057	    -20.74084812	    -86.79705631	    136.11569520	     45.00000026	      0.00000000	      0.00000000
      4.11500000	    -33.95611366	      1.11621960	     -3.57767577	      0.08937218	      0.66595196	     -1.20504539	     85.83044047	    -14.64749367	    -10.11438498	     68.36377431	      1.19317295	     15.13270674	     -6.47040575	      0.00000000	     86.66419282	    -24.07335204	    -12.78335741	     73.85039713	      1.28893258	     14.11200328	      0.28101582	      0.00000000	     -1.65924225	     -6.31877379	      2.88581635	    -18.62047464	     -2.38970130	    -83.64802337	    126.13324792	     45.00000026	      0.00000000	      0.00000000	    -30.70683478	    -20.75385072	    -86.66136270	    136.42460918	     45.00000026	      0.00000000	      0.00000000
      4.12000000	    -33.98350457	      1.16663115	     -3.66669966	      0.08929479	      0.66494508	     -1.20474434	     86.06478651	    -14.57207472	    -10.00395263	     68.63429598	      1.19789444	     15.23616891	     -6.46507427	      0.00000000	     86.86328921	    -24.19370397	    -12.74733661	     74.11123823	      1.29348512	     14.15710029	      0.19776302	      0.00000000	     -1.58424261	     -6.37965418	      2.73662556	    -18.41032334	     -2.46659297	    -83.22145716	    126.24812670	     45.00000026	      0.00000000	      0.00000000	    -30.96082986	    -20.67604864	    -86.82731325	    136.26864257	     45.00000026	      0.00000000	      0.00000000
      4.12500000	    -33.98069879	      1.20743631	     -3.80803445	      0.08925535	      0.66405568	     -1.20431102	     86.23709344	    -14.42743483	     -9.91069732	     68.85714958	      1.20178397	     15.29797731	     -6.49987127	      0.00000000	     87.00825524	    -24.37812821	    -12.69961100	     74.35154029	      1.29767918	     14.22546635	      0.17012666	      0.00000000	     -1.61056691	     -6.39193520	      3.05847524	    -18.57252707	     -2.29176681	    -83.44517405	    126.25378297	     45.00000026	      0.00000000	      0.00000000	    -30.47018591	    -20.86710265	    -86.66619464	    136.13770994	     45.00000026	      0.00000000	      0.00000000
      4.13000000	    -34.04282796	      1.15942828	     -3.80026307	      0.08916666	      0.66304320	     -1.20425007	     86.43809729	    -14.44607799	     -9.93312387	     69.09313440	      1.20590269	     15.41746934	     -6.54706421	      0.00000000	     87.28438194	    -24.35559959	    -12.48857384	     74.58070233	      1.30167881	     14.28659224	      0.02004660	      0.00000000	     -1.49750252	     -6.40714277	      2.85729674	    -18.31042616	     -2.42129154	    -83.16284635	    126.07763655	     45.00000026	      0.00000000	      0.00000000	    -30.78621215	    -20.70735053	    -86.80524689	    136.30815101	     45.00000026	      0.00000000	      0.00000000
      4.13500000	    -34.04653658	      1.23120919	     -3.96115227	      0.08908389	      0.66211825	     -1.20374534	     86.65176300	    -14.26546253	     -9.77894360	     69.33349988	      1.21009785	     15.47756460	     -6.58367271	      0.00000000	     87.42865344	    -24.58687619	    -12.50502889	     74.83247815	      1.30607313	     14.32258382	      0.04917190	      0.00000000	     -1.56643740	     -6.41890410	      3.02689784	    -18.36322020	     -2.26480992	    -83.19652192	    126.34936617	     45.00000026	      0.00000000	      0.00000000	    -30.63884716	    -20.76732253	    -86.79769533	    135.98905407	     45.00000026	      0.00000000	      0.00000000
      4.14000000	    -34.05577737	      1.17032321	     -3.91655895	      0.08908198	      0.66122049	     -1.20378904	     86.79488972	    -14.38323451	     -9.87247025	     69.59258033	      1.21461966	     15.56214558	     -6.50852475	      0.00000000	     87.63458731	    -24.53108506	    -12.31643023	     75.05022088	      1.30987346	     14.39231173	     -0.06001312	      0.00000000	     -1.52982770	     -6.36962741	      3.05422398	    -18.25824031	     -2.26747919	    -83.26792427	    126.24966031	     45.00000026	      0.00000000	      0.00000000	    -30.29792675	    -20.84679891	    -86.70064179	    136.11415819	     45.00000026	      0.00000000	      0.00000000
      4.14500000	    -34.20024235	      1.06723742	     -3.83122880	      0.08885117	      0.66002527	     -1.20392173	     87.08441621	    -14.49237712	     -9.96327194	     69.84644631	      1.21905046	     15.64203321	     -6.50342931	      0.00000000	     88.05947497	    -24.40196082	    -12.00077996	     75.28339395	      1.31394310	     14.39613306	     -0.20483114	      0.00000000	     -1.37378411	     -6.29811217	      2.82225946	    -18.03329626	     -2.43916348	    -83.16673509	    126.04661310	     45.00000026	      0.00000000	      0.00000000	    -30.50557998	    -20.72586934	    -86.79908049	    136.33456524	     45.00000026	      0.00000000	      0.00000000
      4.15000000	    -34.18865903	      1.11149965	     -3.98912125	      0.08879489	      0.65916708	     -1.20346886	     87.24745257	    -14.32254766	     -9.85707443	     70.06625298	      1.22288681	     15.71260949	     -6.57476802	      0.00000000	     88.18401757	    -24.61963150	    -11.98171591	     75.51634954	      1.31800894	     14.48438450	     -0.18598202	      0.00000000	     -1.38946758	     -6.30250993	      3.03115250	    -18.05136633	     -2.33080248	    -83.16006380	    126.22024068	     45.00000026	      0.00000000	      0.00000000	    -30.21887944	    -20.80164158	    -86.73491549	    136.13967173	     45.00000026	      0.00000000	      0.00000000
      4.15500000	    -34.19229906	      1.13664610	     -4.03031702	      0.08874824	      0.65825160	     -1.20328075	     87.42997347	    -14.31646237	     -9.80987234	     70.31426499	      1.22721544	     15.76949299	     -6.52221110	      0.00000000	     88.34417673	    -24.66977742	    -11.89842293	     75.73967733	      1.32190674	     14.58609256	     -0.24710464	      0.00000000	     -1.39970668	     -6.31997591	      3.01897923	    -17.93031139	     -2.29518415	    -83.08718212	    126.25235209	     45.00000026	      0.00000000	      0.00000000	    -30.18690594	    -20.77679042	    -86.77601801	    136.02991438	     45.00000026	      0.00000000	      0.00000000
